 <svg  version="1.0" xmlns="http://www.w3.org/2000/svg"  width="201.000000pt" height="251.000000pt" viewBox="0 0 201.000000 251.000000"  preserveAspectRatio="xMidYMid meet">  <g transform="translate(0.000000,251.000000) scale(0.100000,-0.100000)" fill="#ffffff" stroke="none"> <path d="M795 2460 c-216 -32 -442 -144 -607 -301 l-67 -64 47 -85 47 -85 70 25 c93 33 97 36 91 73 -6 39 28 72 145 142 309 183 597 179 919 -10 116 -69 134 -86 134 -131 1 -38 1 -39 71 -66 39 -15 75 -27 80 -28 6 0 28 34 49 77 l37 76 -73 69 c-174 166 -357 262 -571 303 -83 16 -282 18 -372 5z m225 -27 c0 -7 -7 -13 -15 -13 -8 0 -15 -7 -15 -15 0 -8 7 -15 15 -15 8 0 15 -4 15 -10 0 -5 -7 -10 -15 -10 -8 0 -15 -7 -15 -15 0 -8 7 -15 15 -15 8 0 15 -4 15 -10 0 -5 -11 -10 -25 -10 -24 0 -25 3 -25 63 0 60 1 62 25 62 14 0 25 -6 25 -12z m-75 -53 c0 -53 -1 -55 -27 -58 -28 -3 -28 -3 -28 58 0 61 0 61 28 58 26 -3 27 -5 27 -58z m159 51 c3 -5 -1 -11 -9 -15 -10 -4 -15 -20 -15 -51 0 -34 -4 -45 -15 -45 -13 0 -15 9 -9 50 5 34 3 50 -5 50 -6 0 -11 5 -11 10 0 12 57 13 64 1z m-273 -61 c10 -30 19 -56 19 -57 0 -2 -7 -3 -15 -3 -8 0 -15 5 -15 10 0 6 -4 10 -10 10 -5 0 -10 -7 -10 -15 0 -8 -4 -15 -10 -15 -6 0 -10 29 -10 66 0 55 3 65 16 62 10 -2 24 -25 35 -58z m349 51 c0 -5 -7 -11 -15 -15 -9 -3 -15 -18 -15 -35 0 -16 -3 -36 -6 -45 -13 -33 -21 -14 -20 44 1 58 2 60 29 60 15 0 27 -4 27 -9z m61 -11 c5 0 9 -4 9 -10 0 -5 -9 -10 -20 -10 -11 0 -20 -7 -20 -15 0 -8 5 -15 10 -15 6 0 10 -4 10 -10 0 -5 -7 -10 -15 -10 -8 0 -15 -7 -15 -15 0 -8 7 -15 15 -15 8 0 15 -4 15 -10 0 -12 -47 -14 -54 -2 -4 7 7 67 20 111 2 7 11 10 20 7 9 -3 20 -6 25 -6z m-531 -27 c0 -10 -7 -13 -22 -8 -19 5 -18 2 10 -22 35 -31 41 -57 15 -67 -18 -7 -51 19 -39 31 4 4 11 1 16 -7 5 -8 12 -11 17 -7 4 5 -7 19 -25 33 -36 28 -41 48 -15 62 21 12 43 5 43 -15z m614 -11 c4 -7 -21 -99 -30 -111 -1 -1 -7 0 -13 4 -8 4 -8 12 -1 25 6 11 6 21 1 25 -5 3 -12 -4 -16 -15 -5 -16 -25 -29 -25 -16 0 3 20 63 35 104 4 10 10 10 24 2 11 -5 22 -14 25 -18z m-683 -19 c19 -49 16 -84 -7 -93 -19 -8 -24 -3 -42 48 -16 43 -18 58 -9 64 24 15 48 8 58 -19z m-85 -30 c4 -15 15 -36 25 -47 10 -10 16 -23 13 -28 -9 -14 -22 -9 -29 12 -3 11 -11 20 -16 20 -6 0 -5 -8 1 -20 6 -11 8 -26 4 -32 -4 -6 -19 11 -35 43 -34 65 -34 66 -11 72 35 9 42 6 48 -20z m844 6 c-7 -11 -9 -23 -7 -26 3 -2 10 5 17 16 18 35 30 13 14 -27 -14 -36 -6 -31 22 15 7 10 14 16 17 13 3 -3 -8 -29 -24 -58 l-30 -52 -30 15 c-34 18 -34 17 -13 78 9 27 22 47 30 47 12 0 12 -4 4 -21z m-906 -63 c42 -52 43 -57 14 -53 -12 1 -23 -3 -23 -10 0 -31 -14 -18 -33 34 -32 86 -15 98 42 29z m1039 10 c8 -21 -41 -96 -64 -96 -37 0 -33 44 9 93 18 20 48 22 55 3z m-1108 -46 c14 -28 23 -55 19 -61 -9 -16 -36 12 -29 30 5 13 4 14 -6 4 -10 -10 -10 -16 -1 -25 14 -14 16 -38 2 -38 -15 0 -89 84 -82 94 3 5 18 -6 34 -24 33 -40 38 -32 7 12 -27 38 -17 48 18 17 l27 -24 -17 27 c-20 31 -21 38 -7 38 5 0 21 -23 35 -50z m1175 -11 c0 -12 -53 -89 -62 -89 -12 0 -10 14 4 28 6 6 8 15 4 19 -4 5 -14 0 -21 -11 -8 -10 -18 -16 -24 -15 -6 2 6 28 26 56 35 50 38 52 55 36 10 -9 18 -19 18 -24z m-1261 -46 c35 -43 38 -55 15 -74 -15 -12 -21 -9 -50 25 -35 41 -43 71 -21 79 22 9 25 8 56 -30z m1279 -21 c-32 -32 -35 -39 -24 -54 12 -16 16 -14 51 22 22 22 42 40 45 40 4 0 13 -12 21 -27 17 -35 34 -53 48 -53 17 0 13 -14 -9 -37 -11 -12 -15 -23 -11 -25 5 -2 -2 -11 -15 -21 -21 -16 -24 -16 -24 -2 0 9 -5 13 -11 9 -7 -4 -6 3 2 17 7 13 13 27 14 31 0 3 4 10 9 15 5 4 6 3 3 -3 -9 -15 20 -27 29 -12 4 7 3 8 -4 4 -7 -4 -10 -2 -6 7 3 8 -1 19 -9 25 -11 9 -20 5 -42 -18 -16 -17 -34 -30 -39 -30 -11 1 -86 66 -86 76 0 3 17 25 37 50 25 29 40 41 47 34 7 -7 -2 -23 -26 -48z m-1370 -1 c-2 -12 11 -34 31 -55 46 -47 31 -60 -17 -14 -20 20 -43 33 -49 31 -20 -7 -15 8 9 34 26 28 30 29 26 4z m-8 -92 c0 -6 3 -8 8 -6 4 3 13 -1 20 -9 10 -10 10 -14 1 -14 -7 0 -9 -3 -6 -6 3 -4 1 -16 -5 -28 -7 -11 -11 -25 -10 -29 1 -5 -2 -5 -8 -2 -6 4 -9 14 -5 22 5 14 3 14 -12 2 -11 -9 -14 -10 -9 -1 4 6 2 12 -3 12 -6 0 -10 3 -9 8 1 4 -6 22 -15 40 -10 18 -15 37 -12 42 7 12 65 -16 65 -31z m120 -34 c0 -19 -9 -28 -47 -45 -25 -11 -48 -19 -50 -17 -4 4 83 87 92 87 3 0 5 -11 5 -25z m1298 -27 c18 -15 32 -29 32 -32 0 -3 -22 4 -50 16 -41 17 -50 25 -50 45 0 27 5 25 68 -29z"/> <path d="M604 2344 c3 -9 9 -27 12 -40 5 -21 24 -35 24 -17 0 18 -25 73 -33 73 -5 0 -6 -7 -3 -16z"/> <path d="M1481 2242 c-22 -32 -26 -42 -13 -42 10 0 45 60 39 66 -3 3 -14 -8 -26 -24z"/> <path d="M290 2185 c0 -16 47 -71 55 -63 3 3 -7 21 -24 40 -17 18 -31 29 -31 23z"/> <path d="M1658 2101 c-14 -16 -24 -32 -20 -35 6 -7 62 43 62 56 0 15 -15 8 -42 -21z"/> <path d="M960 2183 c0 -6 -21 -34 -46 -62 -84 -93 -245 -151 -423 -151 l-78 0 -107 -110 -107 -110 25 -64 c69 -171 78 -333 32 -560 -44 -215 -30 -348 47 -470 42 -66 122 -116 259 -162 170 -56 262 -106 341 -185 l67 -67 59 61 c80 84 141 118 321 182 83 30 167 64 186 75 51 32 111 106 133 164 48 130 50 214 10 406 -17 80 -23 139 -23 245 0 124 3 150 27 228 15 49 34 101 41 115 13 26 12 29 -93 140 l-106 112 -75 0 c-190 1 -339 56 -434 162 -31 34 -56 57 -56 51z m173 -168 c91 -44 187 -65 297 -65 74 0 88 -3 103 -20 10 -12 15 -25 12 -31 -4 -5 -3 -8 2 -7 12 4 40 -20 106 -88 l58 -60 -25 -65 c-59 -157 -70 -309 -36 -500 37 -210 42 -257 32 -322 -23 -143 -87 -243 -185 -290 -29 -14 -107 -44 -173 -67 -65 -23 -143 -55 -173 -71 -29 -16 -58 -26 -64 -22 -6 3 -7 1 -3 -5 10 -16 -6 -15 -24 0 -12 11 -12 10 -1 -4 10 -13 10 -18 -1 -25 -8 -4 -31 -28 -51 -53 l-37 -45 -68 65 c-77 75 -139 109 -317 170 -141 48 -187 73 -242 133 -88 96 -111 271 -64 497 43 208 38 338 -20 512 l-30 89 30 34 c16 18 32 31 35 28 3 -4 6 -1 6 6 0 7 28 41 62 76 l63 62 115 6 c129 6 234 33 310 82 25 16 48 28 53 27 4 -1 6 2 5 6 -2 5 11 24 27 43 l30 36 47 -49 c30 -31 75 -62 121 -83z"/> <path d="M930 2023 c0 -30 -3 -33 -30 -33 -28 0 -30 -3 -30 -35 0 -32 2 -35 30 -35 30 0 30 -1 30 -55 l0 -55 35 0 35 0 0 55 0 55 35 0 c33 0 35 2 35 35 0 33 -2 35 -36 35 -34 0 -35 1 -32 33 3 31 2 32 -34 32 -36 1 -38 -1 -38 -32z m50 -18 c0 -33 2 -35 35 -35 24 0 35 -5 35 -15 0 -10 -11 -15 -35 -15 l-35 0 0 -55 c0 -42 -3 -55 -15 -55 -12 0 -15 13 -15 55 0 54 0 55 -30 55 -20 0 -30 5 -30 15 0 10 10 15 30 15 26 0 30 4 30 28 0 16 3 32 7 35 15 15 23 5 23 -28z"/> <path d="M855 1753 c-251 -53 -427 -272 -428 -530 0 -80 17 -183 30 -183 2 0 93 24 201 54 108 29 221 59 250 66 l52 14 0 298 c0 277 -1 298 -17 297 -10 0 -49 -7 -88 -16z m85 -128 c0 -104 -2 -125 -15 -125 -8 0 -15 -4 -15 -10 0 -5 -9 -10 -20 -10 -11 0 -24 -8 -27 -17 -4 -10 -13 -23 -21 -29 -9 -7 -13 -20 -9 -33 5 -19 1 -21 -43 -21 -59 0 -79 18 -56 52 20 29 19 78 -2 147 -30 95 -55 74 -68 -58 -6 -61 -4 -74 11 -91 22 -24 13 -50 -18 -50 -16 0 -23 -6 -23 -19 0 -15 4 -17 13 -10 7 6 17 8 23 4 6 -4 9 -1 8 6 -4 18 23 22 57 9 18 -7 25 -14 18 -18 -7 -5 -3 -11 13 -19 13 -6 22 -7 19 -3 -3 5 1 11 7 13 7 3 4 6 -7 7 -11 1 0 7 25 13 27 7 46 18 46 27 3 33 5 34 15 20 8 -12 9 -10 4 9 -5 16 -4 21 4 17 6 -4 11 -1 11 6 0 12 34 48 45 48 3 0 5 -67 5 -149 0 -134 -2 -150 -17 -155 -19 -6 -323 -89 -406 -111 -26 -7 -49 -9 -51 -6 -9 15 -18 101 -18 160 4 244 178 453 422 505 36 8 66 15 68 15 1 1 2 -55 2 -124z m-219 -92 c11 -30 4 -93 -11 -93 -18 0 -37 41 -32 67 5 24 6 25 12 8 6 -17 7 -16 12 7 3 15 1 25 -3 22 -5 -3 -9 0 -9 5 0 22 21 10 31 -16z"/> <path d="M561 1506 c-15 -62 -14 -80 8 -100 11 -10 17 -24 15 -31 -4 -9 0 -12 13 -9 22 6 47 58 40 82 -35 111 -58 129 -76 58z m34 -16 c-3 -5 0 -12 6 -16 9 -5 6 -11 -7 -22 -18 -13 -18 -14 6 -7 17 4 21 3 11 -3 -7 -5 -11 -14 -8 -19 3 -5 0 -10 -8 -10 -8 0 -15 5 -16 11 0 6 -3 23 -5 39 -3 15 0 27 6 27 6 0 8 5 4 12 -4 7 -3 8 5 4 6 -4 9 -11 6 -16z"/> <path d="M505 1360 c-34 -9 -28 -11 31 -14 30 -1 40 3 37 12 -6 13 -22 14 -68 2z"/> <path d="M978 1763 c-2 -4 -3 -51 -2 -103 1 -52 2 -183 3 -291 l1 -196 43 -12 c23 -6 134 -36 247 -66 112 -30 209 -55 216 -55 20 0 26 30 32 147 4 101 2 121 -22 197 -65 210 -236 349 -467 381 -26 4 -48 3 -51 -2z m186 -53 c186 -70 320 -250 333 -449 6 -87 -1 -165 -15 -188 -6 -10 -57 1 -207 41 -110 29 -217 57 -239 62 l-39 9 -2 275 c-1 151 -1 278 1 281 5 10 110 -10 168 -31z"/> <path d="M1043 1663 c-20 -4 -23 -11 -23 -49 0 -24 5 -44 10 -44 6 0 10 7 10 16 0 35 39 54 111 54 64 0 99 13 62 23 -22 6 -140 6 -170 0z"/> <path d="M1210 1600 c-11 -7 -3 -10 30 -9 34 0 40 2 25 9 -27 12 -37 12 -55 0z"/> <path d="M1015 1498 c9 -66 9 -104 0 -145 -10 -44 22 -75 73 -72 53 3 64 0 56 -12 -4 -7 4 -20 17 -30 24 -18 23 -18 -53 -16 -42 1 -74 -1 -72 -5 2 -3 -4 -9 -13 -11 -10 -3 7 -5 37 -6 30 0 111 -3 180 -5 l124 -4 -114 59 c-97 50 -121 59 -167 59 l-53 0 0 33 c0 32 0 32 45 29 34 -3 45 -8 45 -21 0 -12 27 -27 93 -54 50 -20 125 -50 166 -67 72 -29 111 -37 111 -22 0 8 -48 32 -66 32 -6 0 -22 8 -35 19 -25 19 -29 21 -54 21 -8 0 -15 5 -15 11 0 6 9 9 20 6 11 -3 23 -1 26 4 10 17 32 9 39 -13 6 -18 8 -20 12 -7 2 10 14 20 26 25 19 6 16 8 -15 11 -32 4 -38 8 -38 29 0 21 5 24 35 24 19 0 35 5 35 10 0 6 -9 10 -20 10 -17 0 -19 3 -10 19 20 38 10 43 -25 12 -38 -33 -50 -37 -60 -21 -3 6 1 7 9 4 13 -5 16 2 16 32 l0 38 -46 -44 -46 -45 4 42 3 42 -30 -27 c-16 -15 -36 -33 -42 -41 -11 -12 -13 -8 -13 23 l0 38 -44 -36 c-35 -28 -43 -32 -39 -16 3 11 2 45 -2 75 -5 42 -10 55 -23 55 -14 0 -18 -12 -20 -62 -5 -91 -19 -93 -27 -4 -6 58 -11 76 -22 76 -13 0 -14 -9 -8 -52z m149 -119 c-17 -7 -17 -8 -1 -8 9 -1 17 -6 17 -12 0 -5 -4 -7 -10 -4 -5 3 -10 0 -11 -7 0 -7 -4 -2 -10 10 -11 29 -4 43 18 35 15 -6 14 -7 -3 -14z m205 -9 c-7 -5 -10 -19 -7 -34 3 -15 1 -29 -5 -33 -6 -4 -7 -1 -2 7 6 10 -3 12 -46 8 -30 -3 -46 -3 -36 -1 10 3 17 14 17 28 0 24 10 29 63 31 17 1 24 -2 16 -6z m-114 -25 c0 -15 -8 -21 -32 -23 -30 -3 -33 -1 -33 23 0 24 3 26 33 23 24 -2 32 -8 32 -23z m-67 -87 c-2 -7 3 -12 10 -10 6 1 12 -2 12 -8 0 -13 -3 -13 -34 1 -26 12 -26 29 0 29 8 0 13 -6 12 -12z"/> <path d="M895 1140 c-38 -11 -151 -41 -250 -66 -99 -26 -181 -48 -183 -50 -2 -1 9 -28 24 -61 41 -85 152 -192 245 -237 93 -44 143 -55 244 -56 156 0 277 51 390 165 73 73 134 174 112 186 -9 5 -423 117 -497 135 -8 2 -46 -5 -85 -16z m235 -44 c296 -79 325 -87 328 -91 2 -2 -15 -33 -38 -69 -173 -274 -557 -328 -798 -111 -51 46 -124 145 -126 172 -1 12 55 31 229 78 127 34 232 63 235 64 3 0 79 -19 170 -43z"/> <path d="M834 1060 c-78 -17 -130 -89 -121 -168 6 -56 31 -91 88 -120 49 -26 101 -24 145 4 19 13 27 14 39 4 25 -20 87 -30 127 -19 46 12 93 57 108 105 9 28 9 46 0 80 -29 102 -134 146 -229 95 -16 -9 -26 -9 -43 0 -35 19 -80 26 -114 19z m105 -31 c31 -19 34 -19 52 -3 10 9 39 19 65 22 87 9 154 -51 154 -139 0 -108 -113 -173 -210 -120 -33 18 -35 18 -65 0 -60 -37 -151 -15 -191 47 -23 35 -23 113 0 148 41 64 131 84 195 45z"/> <path d="M804 1021 c-47 -29 -64 -59 -64 -113 0 -41 5 -54 34 -86 32 -34 39 -37 90 -37 47 0 59 4 86 30 36 34 49 77 39 123 -9 42 -16 49 -31 34 -15 -15 -17 -86 -4 -122 6 -20 6 -22 -4 -13 -20 19 -24 97 -7 131 14 28 13 32 -4 48 -29 26 -98 29 -135 5z m122 -12 c9 -7 8 -21 -2 -54 -11 -38 -11 -52 1 -92 16 -53 13 -58 -42 -69 -95 -18 -171 105 -111 181 38 49 115 66 154 34z m54 -99 c0 -45 -15 -61 -24 -25 -8 30 3 77 15 69 5 -3 9 -23 9 -44z"/> <path d="M1012 1023 c-18 -9 -31 -21 -28 -27 30 -71 30 -100 0 -173 -7 -16 47 -43 86 -43 135 0 179 194 55 246 -44 18 -72 17 -113 -3z m128 -22 c14 -10 32 -36 40 -59 13 -37 12 -45 -3 -77 -17 -36 -69 -75 -100 -75 -10 0 -33 7 -53 15 -35 14 -35 15 -18 40 16 25 16 86 -1 142 -6 19 -2 23 26 32 41 12 76 6 109 -18z"/> <path d="M480 709 c-31 -43 -31 -80 0 -38 16 20 20 21 34 10 9 -8 20 -11 24 -7 4 4 -1 14 -12 21 -28 21 -10 38 20 19 30 -20 32 -1 2 20 -31 22 -34 21 -68 -25z"/> <path d="M1403 743 c-7 -2 -13 -16 -13 -30 0 -15 3 -23 8 -19 4 4 7 13 7 19 0 7 7 12 15 12 11 0 14 -11 11 -47 -3 -54 5 -59 37 -25 23 24 32 51 10 29 -19 -19 -27 -14 -26 17 1 45 -14 59 -49 44z"/> <path d="M1333 698 c-13 -6 -23 -15 -23 -20 0 -11 24 -10 37 3 7 7 12 -2 16 -31 5 -40 13 -58 21 -49 2 2 1 28 -1 57 -6 54 -12 59 -50 40z"/> <path d="M566 684 c-29 -28 -32 -65 -6 -86 29 -23 45 -23 70 2 25 25 26 62 2 83 -23 21 -46 22 -66 1z m53 -13 c18 -11 7 -57 -16 -65 -9 -4 -23 0 -31 8 -13 13 -13 18 2 40 18 28 24 30 45 17z"/> <path d="M1260 655 c-6 -8 -9 -23 -5 -36 6 -16 13 -20 36 -17 20 3 29 0 29 -9 0 -7 -9 -13 -20 -13 -11 0 -20 -4 -20 -10 0 -15 36 -12 50 5 13 16 6 51 -18 78 -18 21 -36 22 -52 2z m40 -26 c0 -24 -23 -21 -28 4 -2 10 3 17 12 17 10 0 16 -9 16 -21z"/> <path d="M657 615 c-14 -40 -14 -46 0 -60 33 -33 66 -9 88 63 11 38 -11 24 -28 -18 -20 -51 -52 -57 -44 -7 3 17 8 40 12 50 4 9 3 17 -3 17 -6 0 -17 -20 -25 -45z"/> <path d="M1204 633 c-3 -13 -11 -23 -16 -23 -5 0 -7 -4 -3 -10 3 -5 12 -7 19 -4 8 3 16 -7 22 -26 5 -17 13 -30 19 -28 12 4 9 16 -15 71 -17 38 -19 40 -26 20z"/> <path d="M757 602 c-3 -17 -9 -41 -13 -56 -3 -15 -2 -26 4 -26 5 0 14 17 19 37 l8 37 14 -42 c18 -52 36 -54 45 -4 8 53 7 72 -4 72 -5 0 -10 -16 -10 -37 0 -41 -10 -37 -26 10 -14 41 -30 45 -37 9z"/> <path d="M856 573 c-11 -68 -9 -73 27 -73 42 0 57 15 57 57 0 34 -21 53 -58 53 -15 0 -21 -9 -26 -37z m62 -21 c3 -29 1 -32 -23 -32 -21 0 -26 4 -21 16 3 9 6 25 6 36 0 35 35 17 38 -20z"/> <path d="M988 602 c-27 -3 -28 -6 -28 -58 l0 -54 40 2 c46 3 55 18 10 18 -20 0 -30 5 -30 15 0 9 9 15 25 15 14 0 25 5 25 10 0 6 -11 10 -25 10 -38 0 -32 28 8 32 17 2 25 5 17 8 -8 3 -27 4 -42 2z"/> <path d="M1052 560 c3 -28 8 -53 11 -57 4 -3 21 -2 39 3 28 8 34 15 36 42 4 43 -12 62 -55 62 l-36 0 5 -50z m66 -3 c2 -18 -2 -29 -13 -34 -20 -7 -35 12 -35 45 0 19 5 23 23 20 16 -2 23 -11 25 -31z"/> <path d="M66 549 l-29 -80 44 -46 c150 -155 356 -280 551 -337 134 -39 234 -49 402 -43 320 12 572 119 815 344 l75 69 -40 77 c-28 56 -43 76 -54 71 -8 -3 -43 -15 -77 -27 l-63 -22 0 -48 c0 -47 -1 -48 -67 -97 -78 -57 -193 -120 -286 -155 -168 -63 -390 -75 -580 -31 -154 36 -304 108 -453 219 -50 37 -51 38 -47 81 l5 43 -48 18 c-27 10 -64 24 -83 32 -18 7 -34 13 -35 13 -1 0 -14 -36 -30 -81z m147 14 c18 -9 27 -21 27 -38 0 -14 -4 -25 -8 -25 -4 0 -28 21 -52 46 -39 40 -42 45 -20 39 14 -4 37 -14 53 -22z m1597 14 c0 -1 -22 -25 -50 -52 l-50 -49 0 31 c0 27 6 33 48 51 55 24 52 23 52 19z m-1638 -56 c26 -23 27 -26 11 -43 -9 -10 -13 -21 -9 -25 4 -5 12 0 17 10 10 17 29 24 29 10 -1 -14 -71 -85 -78 -79 -3 4 0 12 6 18 7 7 12 19 12 27 0 11 -4 10 -20 -4 -34 -31 -36 -7 -2 28 42 43 28 57 -15 15 -42 -41 -57 -28 -15 15 24 25 29 36 21 49 -6 10 -16 15 -27 12 -14 -5 -14 -4 -2 4 15 12 23 8 72 -37z m1666 -1 c3 -9 -1 -11 -12 -7 -9 4 -16 2 -16 -3 0 -5 14 -10 31 -12 37 -4 60 -31 42 -49 -7 -7 -19 -8 -30 -4 -17 8 -17 8 0 12 28 7 20 23 -12 23 -17 0 -33 5 -36 10 -10 16 -35 -8 -28 -26 4 -11 9 -12 18 -4 9 7 15 7 19 1 4 -5 2 -12 -4 -16 -19 -12 1 -25 28 -19 l27 6 -21 -22 -21 -22 -41 43 c-40 43 -40 43 -19 58 12 8 28 23 35 34 15 20 33 19 40 -3z m-1568 -92 c0 -4 -10 -7 -22 -5 -18 1 -22 -2 -20 -17 3 -13 -1 -17 -12 -13 -21 8 -31 -10 -16 -28 10 -12 9 -15 -3 -15 -8 0 -20 6 -26 14 -10 12 -5 22 24 55 32 35 39 39 56 28 10 -6 19 -15 19 -19z m1474 26 c9 -3 16 -11 16 -16 0 -6 -7 -8 -15 -4 -22 8 -18 -5 11 -39 23 -28 24 -28 18 -6 -4 17 -2 22 7 19 20 -6 23 -44 5 -51 -31 -12 -92 74 -69 96 8 8 8 8 27 1z m-16 -73 c36 -44 38 -51 19 -51 -17 0 -49 34 -40 43 3 4 -2 16 -12 27 -10 11 -14 20 -8 20 5 0 24 -18 41 -39z m-1405 8 c6 -10 2 -26 -14 -51 -24 -38 -42 -45 -68 -29 -12 8 -8 18 20 55 35 46 46 51 62 25z m1372 -19 c-3 -4 5 -19 16 -34 19 -24 18 -31 -3 -27 -5 0 -8 -3 -8 -9 0 -5 -8 -14 -19 -19 -15 -9 -23 -3 -49 33 -30 42 -31 44 -13 60 20 18 37 10 20 -10 -14 -17 -3 -35 16 -27 8 3 15 1 15 -5 0 -6 -6 -12 -12 -15 -9 -3 -7 -7 5 -12 35 -14 41 11 12 49 -30 39 -26 69 6 40 10 -9 16 -20 14 -24z m-1345 -21 c-15 -27 -4 -38 14 -13 8 10 17 16 21 13 7 -7 -46 -98 -57 -99 -12 0 -10 28 2 35 6 4 8 11 4 16 -3 5 -14 -1 -24 -13 -29 -34 -24 -3 6 42 28 41 53 56 34 19z m1274 -43 c14 -25 26 -47 26 -50 0 -15 -17 -4 -32 21 -10 17 -25 27 -42 28 -14 0 -25 -2 -23 -5 1 -3 9 -17 16 -32 16 -32 35 -38 26 -8 -8 24 10 27 19 3 4 -9 0 -23 -8 -32 -14 -13 -18 -13 -35 3 -49 45 -49 118 0 88 19 -12 20 -11 14 7 -11 37 12 22 39 -23z m-1191 11 c6 -15 -32 -89 -48 -94 -5 -1 -17 2 -25 7 -12 8 -11 15 8 54 22 46 54 62 65 33z m57 -45 c0 -22 -19 -42 -38 -42 -8 0 -21 -8 -28 -17 -25 -35 -23 -5 3 44 23 43 30 50 45 42 10 -5 18 -18 18 -27z m1028 13 c-2 -5 -6 -9 -10 -7 -5 1 -8 -2 -8 -7 0 -5 11 -12 24 -15 27 -7 44 -42 28 -58 -13 -13 -42 -3 -42 13 0 6 7 9 15 5 8 -3 15 -1 15 4 0 5 -11 12 -25 16 -32 8 -49 36 -32 53 13 13 39 11 35 -4z m-978 -23 c0 -5 -7 -29 -16 -55 -15 -46 -34 -63 -34 -31 0 11 -6 14 -21 9 -19 -6 -18 -2 11 39 30 41 60 60 60 38z m25 -53 c-13 -25 -15 -37 -6 -50 13 -23 -1 -32 -23 -16 -16 11 -15 16 5 65 14 33 26 49 31 44 6 -6 3 -22 -7 -43z m875 10 c11 -31 18 -39 32 -36 24 7 23 -10 -2 -23 -16 -9 -22 -6 -35 20 -29 57 -36 80 -21 80 7 0 19 -18 26 -41z m-27 -29 c16 -28 24 -50 18 -50 -5 0 -13 5 -17 12 -5 8 -11 6 -20 -6 -15 -21 -20 -13 -29 47 -10 64 11 63 48 -3z m-750 31 c10 -1 9 -31 -2 -31 -5 0 -12 6 -14 13 -3 7 -6 4 -6 -6 -1 -10 3 -26 9 -36 6 -13 5 -24 -4 -36 -17 -24 -46 -13 -46 17 1 21 2 22 14 6 17 -23 30 -23 21 0 -4 9 -11 31 -15 48 -6 27 -5 30 14 28 12 -1 24 -3 29 -3z m686 -32 c7 -23 15 -48 18 -56 4 -10 1 -14 -7 -11 -7 2 -19 24 -26 49 -16 52 -17 59 -6 59 5 0 14 -18 21 -41z m-35 5 c7 -17 -6 -18 -22 -2 -17 17 -15 -8 3 -47 9 -20 14 -24 14 -12 1 9 6 17 12 17 6 0 9 -10 7 -22 -2 -15 -10 -23 -23 -23 -26 0 -57 91 -35 105 16 10 37 3 44 -16z m-586 -12 c2 -12 -1 -22 -7 -22 -6 0 -11 8 -11 17 0 27 -17 2 -23 -34 -4 -19 -2 -33 3 -33 6 0 10 8 10 17 0 13 3 14 12 5 9 -9 9 -16 -4 -29 -14 -14 -20 -14 -33 -3 -16 14 -13 54 7 93 13 24 42 17 46 -11z m29 -12 c-4 -17 -2 -30 3 -30 6 0 10 9 10 19 0 18 17 38 25 30 7 -8 -18 -109 -27 -109 -6 0 -8 11 -6 25 3 14 1 25 -3 25 -5 0 -11 -11 -15 -25 -3 -14 -11 -25 -16 -25 -6 0 -8 10 -5 23 3 12 9 39 12 60 4 20 12 37 17 37 6 0 8 -12 5 -30z m499 -5 c19 -46 18 -71 -3 -79 -20 -8 -43 17 -43 46 0 9 -9 22 -21 28 -32 18 -35 3 -6 -24 30 -28 32 -37 15 -54 -17 -17 -35 -15 -42 4 -8 22 3 33 14 14 5 -8 13 -11 17 -6 4 4 -4 17 -20 28 -30 22 -34 40 -12 58 11 9 18 10 29 1 10 -9 15 -8 20 4 10 26 36 16 52 -20z m-403 3 c3 -10 7 -10 19 -1 12 10 18 10 32 0 26 -19 10 -102 -19 -102 -16 0 -21 9 -26 45 l-5 45 -5 -40 c-3 -35 -7 -40 -29 -40 -23 0 -25 3 -22 40 4 55 8 65 31 65 11 0 21 -6 24 -12z m267 2 c0 -5 -7 -10 -15 -10 -18 0 -20 -26 -2 -33 9 -4 9 -8 -2 -15 -8 -6 -11 -18 -6 -31 5 -15 2 -21 -9 -21 -13 0 -16 12 -16 53 0 30 3 57 7 60 10 11 43 8 43 -3z m-173 -45 c-5 -36 -4 -45 8 -45 8 0 15 -4 15 -10 0 -5 -11 -10 -25 -10 -23 0 -24 3 -22 55 1 39 6 55 16 55 11 0 12 -10 8 -45z m111 -12 c3 -51 2 -53 -22 -53 -15 0 -26 6 -27 13 0 6 -2 21 -5 32 -8 38 5 67 29 63 19 -3 22 -10 25 -55z"/> <path d="M385 280 c-17 -33 -18 -40 -7 -40 5 0 16 16 25 35 20 42 4 47 -18 5z"/> <path d="M1225 148 c10 -46 30 -63 21 -19 -3 18 -6 37 -6 42 0 5 -5 9 -11 9 -7 0 -8 -12 -4 -32z"/> <path d="M816 128 c-6 -28 -2 -48 8 -37 8 10 15 69 7 69 -5 0 -11 -14 -15 -32z"/> <path d="M881 120 l1 -45 11 33 c7 24 7 36 -1 44 -9 9 -12 1 -11 -32z"/> <path d="M1026 113 c9 -52 14 -54 14 -5 0 23 -5 42 -10 42 -7 0 -8 -14 -4 -37z"/> </g> </svg> 