<?xml version="1.0" standalone="no"?>
<!DOCTYPE svg PUBLIC "-//W3C//DTD SVG 20010904//EN"
 "http://www.w3.org/TR/2001/REC-SVG-20010904/DTD/svg10.dtd">
<svg version="1.0" xmlns="http://www.w3.org/2000/svg"
 width="300.000000pt" height="317.000000pt" viewBox="0 0 300.000000 317.000000"
 preserveAspectRatio="xMidYMid meet">

<g transform="translate(0.000000,317.000000) scale(0.100000,-0.100000)"
fill="#fff" stroke="none">
<path d="M1330 3159 c-235 -26 -459 -109 -670 -248 -116 -76 -318 -278 -398
-399 -106 -160 -182 -340 -224 -535 -32 -148 -32 -446 0 -594 87 -400 337
-759 671 -963 52 -32 53 -34 30 -43 -32 -12 -189 -47 -213 -47 -16 0 -18 6
-12 54 l7 53 -138 6 c-157 6 -246 27 -323 75 -28 17 -50 27 -50 21 0 -20 53
-135 82 -176 l29 -43 -55 -63 c-31 -34 -56 -65 -56 -69 0 -18 128 -56 243 -73
35 -6 37 -8 37 -45 0 -38 0 -38 50 -49 141 -30 336 4 656 115 452 156 562 154
1104 -17 241 -75 310 -88 478 -89 l132 0 0 40 c0 43 -10 38 110 56 44 7 152
43 164 54 5 6 -14 36 -48 74 l-57 66 29 42 c29 42 82 157 82 177 0 6 -22 -4
-50 -21 -77 -48 -166 -69 -323 -75 l-139 -6 7 -44 7 -45 -34 7 c-73 15 -188
48 -188 54 1 3 35 29 78 58 305 205 530 556 608 948 27 137 25 415 -5 555 -61
286 -190 533 -384 736 -322 337 -778 504 -1237 453z m457 -48 c292 -64 523
-189 734 -400 214 -215 346 -460 406 -758 27 -133 25 -434 -5 -565 -57 -257
-180 -500 -349 -687 -68 -77 -218 -202 -296 -249 l-55 -33 -108 31 c-60 18
-163 45 -229 60 l-120 27 45 13 c269 74 526 266 677 508 370 591 144 1377
-482 1678 -304 147 -640 159 -950 35 -345 -139 -611 -448 -701 -815 -146 -602
214 -1227 807 -1400 46 -13 77 -27 69 -30 -8 -3 -53 -15 -100 -26 -47 -12
-140 -39 -208 -61 l-123 -40 -42 24 c-358 212 -602 556 -693 977 -26 121 -27
439 -1 560 61 284 185 523 377 724 247 258 540 404 900 450 84 10 357 -4 447
-23z m-127 -295 c472 -72 848 -422 951 -886 10 -47 19 -102 19 -122 0 -34 -3
-38 -24 -38 -29 0 -37 -10 -38 -49 -1 -20 -7 -31 -19 -34 -23 -6 -59 2 -59 13
0 12 -57 33 -97 36 -25 2 -42 -3 -52 -15 -29 -32 -51 -33 -77 -6 -22 24 -29
26 -92 22 -60 -4 -112 -21 -112 -37 0 -3 -57 -5 -128 -5 -121 1 -127 2 -130
22 -4 27 -27 33 -130 33 -93 0 -142 -17 -142 -50 0 -15 -7 -20 -28 -20 -34 0
-65 30 -56 54 10 27 -20 19 -48 -13 -40 -44 -60 -79 -53 -91 3 -5 3 -20 -1
-32 -6 -19 -8 -17 -26 21 -26 56 -70 206 -77 261 -3 25 -15 61 -26 80 l-19 35
-7 -30 c-6 -28 -7 -28 -9 -5 -1 23 -2 23 -10 5 l-9 -20 -1 20 c-1 11 -4 14 -7
8 -3 -9 -10 -10 -24 -3 -11 7 -19 7 -19 1 0 -5 6 -12 13 -14 6 -3 -1 -5 -18
-5 -16 0 -24 2 -17 5 19 7 14 22 -6 18 -22 -4 -37 4 -44 25 -4 11 -9 9 -17
-10 -7 -14 -19 -36 -27 -50 -8 -14 -12 -37 -10 -51 3 -14 1 -30 -3 -35 -5 -5
-20 -45 -35 -89 -15 -44 -31 -89 -36 -100 -4 -11 -11 -29 -15 -40 -5 -15 -8
-16 -14 -6 -5 8 -22 14 -37 13 -70 -1 -125 -9 -135 -19 -13 -13 -37 -6 -57 14
-7 7 -22 13 -32 13 -10 0 -20 5 -22 10 -2 6 -20 13 -40 17 -33 5 -39 3 -48
-18 -9 -22 -10 -21 -5 9 3 20 1 31 -5 27 -6 -3 -10 -3 -10 2 0 12 -84 15 -114
4 -26 -10 -26 -10 -26 37 0 72 26 219 55 307 54 165 140 308 264 437 101 107
185 168 316 233 222 110 440 146 675 111z m-500 -977 c0 -11 -4 -17 -10 -14
-5 3 -10 13 -10 21 0 8 5 14 10 14 6 0 10 -9 10 -21z m10 -44 c0 -8 -4 -15
-10 -15 -5 0 -10 7 -10 15 0 8 5 15 10 15 6 0 10 -7 10 -15z m-3 -47 c-3 -8
-6 -5 -6 6 -1 11 2 17 5 13 3 -3 4 -12 1 -19z m13 -58 c0 -11 -4 -20 -10 -20
-5 0 -10 9 -10 20 0 11 5 20 10 20 6 0 10 -9 10 -20z m1039 -14 c49 -37 82
-41 132 -17 53 26 74 26 106 1 14 -11 34 -20 44 -20 44 0 64 -25 36 -48 -17
-14 -75 1 -110 28 -29 23 -53 26 -60 7 -2 -6 -27 -20 -55 -30 -48 -17 -52 -17
-83 -1 -18 9 -39 23 -47 30 -19 20 -36 17 -78 -11 -46 -31 -51 -31 -113 0 -71
36 -76 49 -15 42 26 -3 50 -10 52 -16 6 -17 18 -13 51 15 28 23 67 41 97 43 5
1 25 -10 43 -23z m371 -16 c0 -5 -5 -10 -11 -10 -5 0 -7 5 -4 10 3 6 8 10 11
10 2 0 4 -4 4 -10z m-1400 -25 c0 -8 -7 -15 -15 -15 -8 0 -15 7 -15 15 0 8 7
15 15 15 8 0 15 -7 15 -15z m260 -50 c0 -11 -11 -15 -40 -15 -38 0 -49 8 -33
23 3 4 21 7 40 7 23 0 33 -5 33 -15z m100 0 c0 -10 -11 -15 -35 -15 -24 0 -35
5 -35 15 0 10 11 15 35 15 24 0 35 -5 35 -15z m108 -2 c2 -9 -9 -13 -37 -13
-39 0 -50 8 -34 24 11 11 66 2 71 -11z m102 2 c0 -10 -11 -15 -35 -15 -24 0
-35 5 -35 15 0 10 11 15 35 15 24 0 35 -5 35 -15z m108 -2 c2 -9 -9 -13 -37
-13 -30 0 -41 4 -41 16 0 11 9 14 37 12 20 -2 38 -9 41 -15z m774 -15 c-9 -9
-12 -7 -12 12 0 19 3 21 12 12 9 -9 9 -15 0 -24z m-1962 -4 c0 -3 -6 -12 -14
-20 -16 -15 -32 -2 -21 16 7 11 35 14 35 4z m1878 -36 c3 -17 -19 -18 -362
-18 -298 0 -366 2 -366 13 0 8 3 17 7 20 4 4 167 6 362 5 330 -3 356 -4 359
-20z m-1178 -8 c0 -5 -16 -10 -35 -10 -19 0 -35 5 -35 10 0 6 16 10 35 10 19
0 35 -4 35 -10z m110 0 c0 -5 -18 -10 -40 -10 -22 0 -40 5 -40 10 0 6 18 10
40 10 22 0 40 -4 40 -10z m100 0 c0 -5 -16 -10 -35 -10 -19 0 -35 5 -35 10 0
6 16 10 35 10 19 0 35 -4 35 -10z m110 0 c0 -5 -18 -10 -40 -10 -22 0 -40 5
-40 10 0 6 18 10 40 10 22 0 40 -4 40 -10z m100 0 c0 -5 -18 -10 -40 -10 -22
0 -40 5 -40 10 0 6 18 10 40 10 22 0 40 -4 40 -10z m210 -52 c0 -16 -3 -19
-11 -11 -6 6 -8 16 -5 22 11 17 16 13 16 -11z m330 13 c0 -6 -4 -13 -10 -16
-5 -3 -10 1 -10 9 0 9 5 16 10 16 6 0 10 -4 10 -9z m-392 -18 c2 -9 -7 -13
-27 -13 -21 0 -31 5 -31 16 0 19 51 16 58 -3z m-818 -18 c0 -22 -4 -25 -40
-25 -36 0 -40 3 -40 25 0 23 4 25 40 25 36 0 40 -2 40 -25z m560 10 c0 -10
-11 -15 -35 -15 -24 0 -35 5 -35 15 0 10 11 15 35 15 24 0 35 -5 35 -15z m90
5 c0 -5 -13 -10 -30 -10 -16 0 -30 5 -30 10 0 6 14 10 30 10 17 0 30 -4 30
-10z m80 -5 c0 -9 -9 -15 -25 -15 -16 0 -25 6 -25 15 0 9 9 15 25 15 16 0 25
-6 25 -15z m-842 -12 c3 -9 -12 -13 -52 -13 -44 0 -56 3 -56 16 0 12 10 14 52
12 30 -2 53 -8 56 -15z m222 2 c0 -10 -11 -15 -35 -15 -24 0 -35 5 -35 15 0
10 11 15 35 15 24 0 35 -5 35 -15z m125 0 c0 -5 -19 -11 -42 -13 -34 -3 -43 0
-43 13 0 13 9 16 43 13 23 -2 42 -7 42 -13z m115 0 c0 -11 -12 -15 -45 -15
-33 0 -45 4 -45 15 0 11 12 15 45 15 33 0 45 -4 45 -15z m110 5 c0 -5 -15 -10
-34 -10 -19 0 -38 5 -41 10 -4 6 10 10 34 10 23 0 41 -4 41 -10z m540 0 c0 -5
-5 -10 -11 -10 -5 0 -7 5 -4 10 3 6 8 10 11 10 2 0 4 -4 4 -10z m-1614 -10
c15 0 24 -6 24 -15 0 -11 -11 -15 -40 -15 -34 0 -40 3 -40 21 0 15 4 19 16 15
9 -3 27 -6 40 -6z m154 -10 c0 -17 -7 -20 -49 -20 -33 0 -51 5 -54 14 -8 21 2
26 55 26 41 0 48 -3 48 -20z m110 0 c0 -17 -7 -20 -40 -20 -33 0 -40 3 -40 20
0 17 7 20 40 20 33 0 40 -3 40 -20z m110 0 c0 -17 -7 -20 -45 -20 -38 0 -45 3
-45 20 0 17 7 20 45 20 38 0 45 -3 45 -20z m-450 -10 c0 -5 -16 -10 -35 -10
-19 0 -35 5 -35 10 0 6 16 10 35 10 19 0 35 -4 35 -10z m1060 -10 c52 -1 155
2 228 6 87 4 132 3 132 -4 0 -15 -511 -41 -547 -28 -29 12 16 37 57 31 19 -2
78 -5 130 -5z m573 -31 c-14 -14 -55 -8 -61 9 -6 19 40 33 58 16 10 -10 11
-17 3 -25z m217 27 c0 -8 -4 -18 -10 -21 -5 -3 -10 3 -10 14 0 12 5 21 10 21
6 0 10 -6 10 -14z m160 -16 c0 -16 -4 -30 -9 -30 -12 0 -24 37 -16 50 12 20
25 10 25 -20z m-70 0 c0 -11 -7 -20 -15 -20 -15 0 -21 21 -8 33 12 13 23 7 23
-13z m-1412 -7 c2 -9 -11 -13 -47 -13 -39 0 -51 4 -51 16 0 12 10 14 47 12 26
-2 48 -9 51 -15z m102 2 c0 -16 -55 -22 -64 -6 -8 13 5 21 36 21 18 0 28 -5
28 -15z m100 -1 c0 -11 -8 -14 -27 -12 -39 4 -42 28 -4 28 21 0 31 -5 31 -16z
m-560 -9 c0 -11 -12 -15 -49 -15 -34 0 -51 4 -55 15 -4 12 5 15 49 15 42 0 55
-3 55 -15z m120 0 c0 -11 -12 -15 -45 -15 -33 0 -45 4 -45 15 0 11 12 15 45
15 33 0 45 -4 45 -15z m110 5 c0 -5 -18 -10 -40 -10 -22 0 -40 5 -40 10 0 6
18 10 40 10 22 0 40 -4 40 -10z m1390 3 c0 -5 -5 -15 -10 -23 -8 -12 -10 -11
-10 8 0 12 5 22 10 22 6 0 10 -3 10 -7z m-1750 -18 c0 -10 -10 -15 -34 -15
-21 0 -36 6 -40 15 -4 12 3 15 34 15 29 0 40 -4 40 -15z m1380 -10 c0 -20 -5
-25 -25 -25 -20 0 -25 5 -25 25 0 20 5 25 25 25 20 0 25 -5 25 -25z m70 5 c0
-15 -7 -20 -25 -20 -18 0 -25 5 -25 20 0 15 7 20 25 20 18 0 25 -5 25 -20z
m-690 -21 c0 -25 -33 -22 -38 4 -2 12 3 17 17 17 15 0 21 -6 21 -21z m90 -4
c0 -21 -5 -25 -30 -25 -25 0 -30 4 -30 25 0 21 5 25 30 25 25 0 30 -4 30 -25z
m210 -11 c0 -32 -2 -35 -22 -28 -26 8 -38 22 -38 47 0 12 8 17 30 17 28 0 30
-3 30 -36z m170 11 c0 -22 -4 -25 -35 -25 -31 0 -35 3 -35 25 0 22 4 25 35 25
31 0 35 -3 35 -25z m80 0 c0 -20 -5 -25 -25 -25 -20 0 -25 5 -25 25 0 20 5 25
25 25 20 0 25 -5 25 -25z m475 15 c3 -5 1 -10 -4 -10 -6 0 -11 5 -11 10 0 6 2
10 4 10 3 0 8 -4 11 -10z m-801 -8 c3 -5 2 -19 -1 -31 -5 -19 -11 -22 -52 -19
-42 3 -46 5 -49 31 -3 26 -2 27 47 27 27 0 52 -4 55 -8z m166 -17 c0 -21 -5
-25 -29 -25 -17 0 -33 5 -36 10 -13 21 4 40 35 40 25 0 30 -4 30 -25z m490 -1
c0 -8 -4 -12 -10 -9 -5 3 -10 13 -10 21 0 8 5 12 10 9 6 -3 10 -13 10 -21z
m-1110 -4 c0 -17 -7 -20 -40 -20 -33 0 -40 3 -40 20 0 17 7 20 40 20 33 0 40
-3 40 -20z m130 0 c0 -17 -7 -20 -50 -20 -43 0 -50 3 -50 20 0 17 7 20 50 20
43 0 50 -3 50 -20z m930 -5 c0 -21 -5 -25 -30 -25 -41 0 -43 37 -2 43 15 2 28
5 30 6 1 0 2 -10 2 -24z m-1520 -16 c0 -24 -3 -30 -16 -25 -9 3 -27 6 -40 6
-19 0 -24 5 -24 25 0 23 4 25 40 25 38 0 40 -1 40 -31z m130 11 c0 -17 -7 -20
-45 -20 -38 0 -45 3 -45 20 0 17 7 20 45 20 38 0 45 -3 45 -20z m100 0 c0 -17
-7 -20 -40 -20 -33 0 -40 3 -40 20 0 17 7 20 40 20 33 0 40 -3 40 -20z m110 5
c0 -11 -11 -15 -40 -15 -29 0 -40 4 -40 15 0 11 11 15 40 15 29 0 40 -4 40
-15z m1538 -2 c2 -9 -7 -13 -27 -13 -31 0 -42 14 -18 23 19 8 40 3 45 -10z
m-1978 -18 c0 -27 -9 -32 -28 -13 -18 18 -14 38 8 38 15 0 20 -7 20 -25z
m1530 -6 c0 -10 -6 -19 -12 -19 -7 0 -23 -3 -35 -6 -20 -5 -23 -2 -23 19 0 20
6 26 28 29 35 5 42 1 42 -23z m-756 -9 c14 -5 26 -17 26 -26 0 -11 -5 -14 -16
-10 -9 3 -22 6 -30 6 -8 0 -14 9 -14 20 0 23 0 23 34 10z m646 -15 c0 -20 -5
-25 -24 -25 -17 0 -25 7 -28 25 -5 22 -2 25 23 25 24 0 29 -4 29 -25z m404 10
c-4 -8 -10 -15 -15 -15 -5 0 -9 7 -9 15 0 8 7 15 15 15 9 0 12 -6 9 -15z
m-1414 -25 c0 -17 -7 -20 -39 -20 -40 0 -57 11 -46 30 3 6 24 10 46 10 32 0
39 -3 39 -20z m95 -5 c0 -15 -8 -21 -34 -23 -38 -4 -57 9 -47 33 4 12 16 15
43 13 30 -2 38 -7 38 -23z m195 10 c0 -10 -10 -15 -30 -15 -29 0 -38 9 -23 23
13 13 53 7 53 -8z m185 5 c11 -17 -3 -28 -30 -22 -32 6 -33 32 -1 32 14 0 28
-4 31 -10z m93 -16 c3 -20 0 -21 -30 -15 -20 4 -34 14 -36 25 -3 14 2 17 30
14 25 -2 34 -8 36 -24z m232 6 c0 -17 -7 -20 -45 -20 -32 0 -45 4 -45 14 0 14
21 22 68 25 16 1 22 -5 22 -19z m110 0 c0 -17 -7 -20 -45 -20 -38 0 -45 3 -45
20 0 17 7 20 45 20 38 0 45 -3 45 -20z m610 4 c0 -9 -7 -14 -17 -12 -25 5 -28
28 -4 28 12 0 21 -6 21 -16z m-1630 -9 c0 -11 -12 -15 -45 -15 -33 0 -45 4
-45 15 0 11 12 15 45 15 33 0 45 -4 45 -15z m310 0 c0 -10 -11 -15 -35 -15
-24 0 -35 5 -35 15 0 10 11 15 35 15 24 0 35 -5 35 -15z m470 -5 c0 -16 -7
-20 -35 -20 -28 0 -35 4 -35 20 0 16 7 20 35 20 28 0 35 -4 35 -20z m-1030 -5
c11 -13 8 -15 -19 -15 -21 0 -31 5 -31 15 0 8 8 15 19 15 10 0 24 -7 31 -15z
m138 3 c-3 -7 -25 -14 -51 -16 -37 -2 -47 0 -47 12 0 12 12 16 51 16 36 0 49
-4 47 -12z m566 -4 c25 -9 21 -43 -4 -37 -11 3 -20 14 -20 24 0 21 1 22 24 13z
m824 -11 c-4 -23 -54 -41 -69 -26 -21 21 -2 43 36 43 29 0 36 -3 33 -17z
m-110 -24 c2 -11 -6 -18 -23 -21 -28 -6 -40 5 -31 28 8 20 50 14 54 -7z m260
-1 c-2 -19 -10 -24 -40 -26 -38 -3 -45 3 -30 24 8 13 30 22 55 23 14 1 18 -5
15 -21z m-1273 -8 c0 -10 -12 -16 -37 -18 -37 -3 -51 12 -31 32 13 13 68 2 68
-14z m245 0 c0 -17 -7 -20 -39 -20 -22 0 -43 5 -46 10 -11 19 6 30 46 30 32 0
39 -3 39 -20z m144 5 c-7 -16 -14 -18 -38 -9 -26 10 -18 24 14 24 22 0 28 -4
24 -15z m96 -11 c0 -22 -3 -25 -22 -20 -13 3 -29 6 -35 6 -7 0 -13 9 -13 20 0
16 7 20 35 20 31 0 35 -3 35 -26z m440 17 c0 -13 -23 -29 -45 -31 -36 -4 -45
0 -45 20 0 17 7 20 45 20 25 0 45 -4 45 -9z m440 0 c0 -15 -16 -22 -34 -15
-25 9 -19 24 9 24 14 0 25 -4 25 -9z m70 5 c0 -3 -4 -8 -10 -11 -5 -3 -10 -1
-10 4 0 6 5 11 10 11 6 0 10 -2 10 -4z m-1532 -23 c-4 -20 -54 -31 -70 -15
-17 17 1 32 38 32 28 0 35 -4 32 -17z m220 5 c-5 -14 -61 -23 -85 -14 -27 11
-2 26 43 26 32 0 44 -4 42 -12z m470 -10 c5 -28 -64 -25 -78 3 -11 19 -9 20
32 17 31 -2 44 -8 46 -20z m76 12 c39 -14 31 -30 -14 -30 -27 0 -40 4 -40 13
0 28 15 32 54 17z m139 -5 c7 -16 3 -20 -36 -29 -33 -8 -59 8 -50 30 7 19 79
19 86 -1z m-1123 -10 c0 -11 -11 -15 -40 -15 -38 0 -49 8 -33 23 3 4 21 7 40
7 23 0 33 -5 33 -15z m120 -6 c0 -5 -20 -9 -45 -9 -54 0 -60 17 -7 22 41 4 52
1 52 -13z m1374 5 c10 -25 -2 -34 -45 -34 -66 0 -42 35 32 49 4 0 10 -6 13
-15z m-849 -14 c19 -7 25 -14 18 -21 -14 -14 -63 6 -63 26 0 9 4 14 9 11 4 -3
21 -10 36 -16z m105 -26 c0 -8 -5 -14 -11 -14 -18 0 -50 21 -45 29 9 13 56 0
56 -15z m647 10 c6 -17 -47 -37 -63 -23 -19 15 -18 27 4 32 26 8 55 3 59 -9z
m-903 0 c28 -11 6 -24 -40 -24 -32 0 -44 4 -44 15 0 16 52 21 84 9z m66 -9 c0
-8 -9 -15 -20 -15 -11 0 -20 7 -20 15 0 8 9 15 20 15 11 0 20 -7 20 -15z m280
-11 c0 -9 -11 -14 -30 -14 -27 0 -40 17 -25 32 10 10 55 -5 55 -18z m455 1 c0
-16 -8 -21 -42 -23 -40 -3 -43 -2 -43 23 0 25 3 26 43 23 34 -2 42 -7 42 -23z
m-1308 -2 c6 -16 -45 -29 -59 -15 -6 6 -7 15 -3 22 9 14 57 9 62 -7z m198 -3
c0 -10 -12 -16 -34 -18 -39 -4 -64 13 -41 29 23 14 75 7 75 -11z m83 3 c-4
-22 -34 -29 -53 -13 -21 17 -9 30 26 30 24 0 30 -4 27 -17z m116 8 c7 -11 -17
-21 -54 -21 -16 0 -30 7 -34 15 -4 12 4 15 39 15 24 0 46 -4 49 -9z m574 -8
c-2 -13 -14 -19 -41 -21 -32 -3 -37 0 -37 17 0 18 6 21 41 21 33 0 40 -3 37
-17z m602 2 c0 -9 -9 -15 -21 -15 -18 0 -19 2 -9 15 7 8 16 15 21 15 5 0 9 -7
9 -15z m-1480 -11 c0 -11 -9 -14 -37 -12 -52 4 -56 28 -4 28 30 0 41 -4 41
-16z m540 -15 c0 -18 -35 -5 -38 14 -3 16 -1 17 17 7 12 -6 21 -15 21 -21z
m430 11 c0 -16 -7 -20 -35 -20 -28 0 -35 4 -35 20 0 16 7 20 35 20 28 0 35 -4
35 -20z m128 3 c-4 -23 -98 -33 -98 -10 0 22 11 27 57 27 37 0 44 -3 41 -17z
m418 -20 c-10 -10 -19 5 -10 18 6 11 8 11 12 0 2 -7 1 -15 -2 -18z m-891 -8
c0 -23 -30 -32 -50 -15 -21 18 -7 42 24 38 18 -2 26 -9 26 -23z m741 14 c8
-14 -5 -26 -38 -34 -24 -6 -28 -4 -28 13 0 29 51 45 66 21z m-906 -19 c0 -6
-7 -13 -15 -16 -20 -8 -48 3 -40 16 8 13 55 13 55 0z m980 -5 c0 -9 -9 -15
-21 -15 -18 0 -19 2 -9 15 7 8 16 15 21 15 5 0 9 -7 9 -15z m-1290 -10 c0 -22
-27 -30 -56 -17 -36 17 -29 32 16 32 29 0 40 -4 40 -15z m88 9 c36 -10 25 -24
-17 -24 -38 0 -57 10 -44 24 8 8 31 8 61 0z m140 -6 c-3 -7 -25 -14 -51 -16
-37 -2 -47 0 -47 12 0 12 12 16 51 16 36 0 49 -4 47 -12z m366 -3 c8 -21 -17
-29 -51 -18 -43 15 -40 33 5 33 27 0 42 -5 46 -15z m526 5 c0 -13 -34 -30 -59
-30 -22 0 -35 15 -26 30 8 13 85 13 85 0z m-1327 -15 c-4 -15 -56 -12 -61 3
-3 10 5 13 29 10 19 -2 33 -7 32 -13z m117 -1 c0 -12 -9 -14 -42 -12 -59 4
-63 28 -4 28 35 0 46 -4 46 -16z m768 -1 c2 -9 -8 -13 -32 -13 -34 0 -44 8
-29 24 11 11 56 2 61 -11z m330 -5 c3 -15 -4 -18 -42 -18 -33 0 -46 4 -46 14
0 30 82 34 88 4z m-602 2 c8 0 14 -7 14 -15 0 -17 -4 -18 -37 -9 -13 4 -23 13
-23 21 0 10 6 13 16 9 9 -3 22 -6 30 -6z m382 -7 c2 -9 -10 -13 -42 -13 -43 0
-55 7 -39 24 12 11 76 2 81 -11z m119 1 c2 -7 -13 -14 -39 -16 -51 -6 -59 -3
-51 18 7 18 84 16 90 -2z m-998 -20 c36 -7 42 -24 9 -24 -34 0 -68 11 -68 21
0 11 16 11 59 3z m401 -4 c0 -5 -10 -10 -22 -11 -15 0 -7 -6 24 -17 26 -9 57
-27 70 -39 63 -58 312 -95 502 -74 159 17 390 80 489 133 20 10 21 10 8 -5
-21 -26 -78 -59 -145 -83 l-61 -22 52 2 c29 0 54 -3 55 -9 5 -18 -65 -34 -154
-34 -71 -1 -88 -4 -88 -16 0 -18 13 -19 112 -3 60 9 84 9 104 -1 21 -9 24 -14
15 -25 -9 -10 -53 -16 -159 -20 -175 -8 -232 -14 -232 -26 0 -5 71 -9 158 -10
86 0 177 -2 202 -2 25 -1 53 2 62 6 24 11 24 -16 1 -36 -32 -28 -197 -107
-293 -139 -92 -30 -97 -31 -314 -34 -205 -2 -228 0 -316 22 -158 40 -378 160
-390 214 -4 16 -16 26 -40 32 -34 8 -60 30 -60 50 0 5 5 5 13 -1 17 -14 429
-41 415 -27 -3 3 -95 10 -204 16 -179 10 -201 13 -221 32 -13 11 -23 24 -23
29 0 4 43 8 96 8 86 0 95 2 84 15 -11 13 -33 15 -119 13 -94 -3 -106 -1 -109
15 -3 16 12 17 200 17 l203 0 64 -80 c36 -44 66 -80 68 -80 12 0 -3 26 -38 67
-23 26 -48 62 -56 80 -7 18 -20 33 -28 33 -8 0 -15 5 -15 10 0 6 20 10 45 10
25 0 45 -4 45 -10z m198 0 c13 0 22 -6 22 -15 0 -13 -7 -15 -37 -9 -45 8 -53
12 -53 26 0 6 10 8 23 4 12 -3 32 -6 45 -6z m669 -6 c2 -7 -12 -14 -34 -16
-44 -6 -48 -4 -39 17 7 19 67 17 73 -1z m-1372 -4 c-3 -5 -13 -10 -21 -10 -8
0 -14 5 -14 10 0 6 9 10 21 10 11 0 17 -4 14 -10z m268 3 c-13 -2 -35 -2 -50
0 -16 2 -5 4 22 4 28 0 40 -2 28 -4z m1013 -4 c3 -6 2 -15 -3 -20 -15 -15 -76
-21 -93 -9 -13 9 -12 12 4 25 23 17 82 20 92 4z m-446 -26 c0 -20 -64 -13 -68
8 -2 12 5 14 33 11 22 -3 35 -10 35 -19z m-145 -14 c66 -16 158 -33 205 -36
123 -8 396 17 463 43 11 4 17 1 17 -9 0 -33 -265 -72 -435 -64 -159 8 -385 60
-385 88 0 13 1 12 135 -22z m235 15 c0 -11 -8 -14 -27 -12 -39 4 -42 28 -4 28
21 0 31 -5 31 -16z m76 6 c8 0 14 -7 14 -15 0 -10 -10 -15 -30 -15 -24 0 -30
4 -30 21 0 15 4 19 16 15 9 -3 22 -6 30 -6z m152 -7 c3 -9 -12 -13 -52 -13
-44 0 -56 3 -56 16 0 12 10 14 52 12 30 -2 53 -8 56 -15z m302 2 c0 -8 -6 -15
-14 -15 -17 0 -28 14 -19 24 12 12 33 6 33 -9z m-388 -461 c122 -17 333 -68
548 -133 158 -47 285 -71 381 -71 l69 0 0 -135 0 -135 -117 0 c-154 1 -229 15
-464 88 -340 107 -458 132 -613 132 -145 0 -282 -32 -536 -125 -244 -90 -502
-135 -607 -106 l-43 12 0 132 0 132 106 -3 c138 -5 198 7 436 83 432 139 592
164 840 129z m-1588 -54 c63 -27 194 -50 282 -50 41 0 74 -4 74 -8 0 -13 -71
-49 -122 -62 l-48 -12 0 -99 0 -99 -43 0 c-47 0 -145 23 -183 43 l-25 13 59
65 59 64 -21 17 c-19 14 -86 125 -86 142 0 9 4 8 54 -14z m2831 -17 c-21 -51
-63 -113 -80 -120 -11 -4 2 -23 46 -71 l60 -66 -25 -13 c-38 -20 -136 -43
-183 -43 l-43 0 0 103 0 103 -32 2 c-37 3 -138 49 -138 63 0 5 33 9 74 9 88 0
219 23 278 50 59 26 60 25 43 -17z"/>
<path d="M1418 3000 c3 -76 5 -80 27 -80 17 0 22 5 20 18 -2 9 -6 43 -9 75 -4
49 -2 57 13 57 9 0 22 -5 29 -12 9 -9 12 -8 12 5 0 14 -9 17 -47 17 l-48 0 3
-80z"/>
<path d="M1564 3072 c3 -5 2 -41 -3 -80 -7 -71 -7 -72 17 -72 13 0 21 4 17 10
-3 5 -3 21 1 35 5 19 11 24 25 20 15 -5 19 -1 19 16 0 18 -3 20 -12 11 -21
-21 -30 -13 -26 23 3 23 -1 36 -10 40 -20 8 -34 6 -28 -3z"/>
<path d="M1297 3063 c-2 -5 -1 -19 4 -33 7 -23 7 -23 8 8 1 31 -3 40 -12 25z"/>
<path d="M1370 3059 c0 -5 5 -7 10 -4 6 3 10 8 10 11 0 2 -4 4 -10 4 -5 0 -10
-5 -10 -11z"/>
<path d="M1635 3063 c11 -3 23 -10 27 -17 5 -7 8 -5 8 7 0 12 -7 17 -27 16
-22 -1 -23 -2 -8 -6z"/>
<path d="M1196 3003 c10 -76 24 -98 64 -101 34 -3 35 -2 10 10 -21 11 -27 24
-34 76 -8 51 -13 62 -28 62 -17 0 -18 -5 -12 -47z"/>
<path d="M1058 3008 c-47 -16 -58 -24 -57 -41 0 -22 0 -22 9 1 16 39 36 25 56
-40 10 -35 18 -66 17 -70 -2 -4 5 -4 15 -1 30 11 33 14 23 26 -5 7 -14 31 -21
55 -6 24 -14 50 -17 59 -5 13 -1 15 20 11 19 -4 27 -1 27 8 0 17 -2 17 -72 -8z"/>
<path d="M1835 3018 c-51 -27 -61 -89 -22 -126 26 -25 47 -30 23 -6 -9 8 -16
22 -16 30 0 25 29 86 48 100 14 11 14 13 2 13 -8 0 -24 -5 -35 -11z"/>
<path d="M1912 3001 c14 -23 -3 -90 -28 -116 -14 -13 -13 -15 5 -15 63 0 85
121 26 143 -12 5 -13 3 -3 -12z"/>
<path d="M1310 2958 c-3 -26 -1 -43 3 -39 5 5 7 26 5 47 l-3 39 -5 -47z"/>
<path d="M1999 2901 l-35 -70 23 -10 c19 -9 23 -8 23 7 0 10 6 27 14 38 14 19
15 19 29 0 14 -18 14 -18 19 2 4 14 2 19 -7 16 -22 -9 -27 14 -11 45 14 26 14
30 0 35 -9 3 -17 6 -18 6 -2 0 -18 -31 -37 -69z"/>
<path d="M920 2951 c-14 -5 -11 -16 15 -77 30 -69 32 -71 55 -59 12 7 18 14
13 16 -6 2 -24 32 -39 65 -22 46 -33 60 -44 55z"/>
<path d="M2093 2937 c9 -8 17 -23 17 -33 0 -16 2 -17 10 -4 14 22 13 26 -17
39 -24 10 -26 10 -10 -2z"/>
<path d="M1653 2933 c-18 -7 -16 -23 2 -23 8 0 15 7 15 15 0 8 -1 15 -2 14 -2
0 -9 -3 -15 -6z"/>
<path d="M788 2884 c-43 -26 -55 -39 -51 -51 6 -14 7 -14 11 -2 14 43 25 40
58 -13 19 -29 34 -59 34 -65 0 -7 3 -13 8 -13 13 1 43 28 35 31 -16 7 -74 110
-67 120 3 6 15 9 25 6 11 -3 19 -1 19 3 0 21 -19 16 -72 -16z"/>
<path d="M2215 2860 c-3 -5 3 -10 15 -10 12 0 18 5 15 10 -3 6 -10 10 -15 10
-5 0 -12 -4 -15 -10z"/>
<path d="M2223 2782 c-39 -59 -42 -66 -26 -77 14 -11 19 -9 28 9 27 52 68 105
77 100 5 -3 13 -15 17 -27 6 -17 9 -17 14 -4 4 10 -6 23 -31 39 l-37 24 -42
-64z"/>
<path d="M661 2797 c-69 -35 -51 -81 34 -85 56 -3 57 -4 52 -30 -5 -25 -4 -25
9 -7 32 44 1 80 -62 71 -29 -4 -46 -1 -53 8 -16 19 12 40 44 34 20 -4 23 -3
14 8 -6 8 -12 14 -13 14 0 0 -12 -6 -25 -13z"/>
<path d="M2360 2723 c-13 -18 -36 -45 -52 -58 l-28 -24 45 -37 c35 -28 49 -34
57 -26 9 9 7 12 -8 12 -12 0 -28 8 -36 18 -15 16 -13 21 28 66 43 49 44 49 64
31 11 -10 18 -25 16 -32 -7 -17 -1 -17 12 0 9 10 1 22 -31 49 l-43 36 -24 -35z"/>
<path d="M581 2674 l34 -36 -61 7 c-78 9 -97 -8 -50 -45 20 -16 26 -18 16 -6
-15 19 -13 19 65 12 l80 -7 -55 55 c-30 31 -56 56 -59 56 -3 0 11 -16 30 -36z"/>
<path d="M2395 2672 c-11 -4 -21 -15 -22 -25 -1 -17 1 -16 23 4 21 19 30 31
22 28 -2 -1 -12 -4 -23 -7z"/>
<path d="M683 2652 c11 -10 20 -11 32 -4 15 8 13 10 -14 14 -28 4 -30 3 -18
-10z"/>
<path d="M2475 2600 c-52 -21 -64 -83 -25 -125 13 -14 28 -25 34 -25 6 0 0 7
-12 16 -29 20 -28 55 4 88 26 25 69 34 90 19 5 -5 -1 2 -14 15 -24 23 -43 26
-77 12z"/>
<path d="M405 2550 c-10 -11 -13 -20 -7 -20 6 0 36 -20 66 -44 47 -39 56 -43
67 -30 6 8 10 16 8 17 -2 1 -29 24 -60 50 -56 46 -57 46 -74 27z"/>
<path d="M2578 2525 c-4 -20 -2 -23 8 -14 7 6 10 17 7 25 -7 20 -10 18 -15
-11z"/>
<path d="M570 2524 c0 -8 5 -12 10 -9 6 4 8 11 5 16 -9 14 -15 11 -15 -7z"/>
<path d="M2640 2474 c0 -6 -27 -26 -60 -45 -63 -36 -64 -37 -51 -57 6 -10 14
-9 40 5 31 17 32 17 46 -1 17 -23 12 -34 -25 -50 -25 -10 -27 -14 -15 -29 12
-17 16 -16 69 17 30 20 60 36 66 36 13 0 13 6 -2 29 -11 18 -12 18 -32 0 -26
-24 -38 -24 -54 2 -11 18 -11 23 5 35 10 7 24 14 31 14 6 0 12 3 12 8 -1 11
-30 47 -30 36z"/>
<path d="M297 2397 c-4 -10 2 -13 19 -9 13 2 21 8 18 13 -8 14 -31 11 -37 -4z"/>
<path d="M266 2342 c-14 -28 -14 -29 19 -41 18 -6 49 -23 69 -36 l36 -24 15
29 c13 25 13 29 1 24 -16 -6 -56 12 -56 26 0 5 7 10 15 12 13 2 12 6 -5 16
-18 11 -20 10 -20 -8 0 -11 -3 -20 -8 -20 -16 0 -52 32 -47 41 4 5 4 9 1 9 -3
0 -12 -13 -20 -28z"/>
<path d="M418 2340 c2 -16 8 -27 13 -24 13 8 11 30 -4 43 -11 8 -13 5 -9 -19z"/>
<path d="M2701 2209 c-23 -45 -40 -83 -37 -86 2 -2 17 2 33 11 15 8 24 15 20
16 -5 0 4 24 20 53 27 47 33 87 14 87 -4 0 -26 -36 -50 -81z"/>
<path d="M217 2222 c-21 -23 -22 -39 -3 -23 20 17 56 -3 56 -30 0 -15 5 -19
18 -15 9 3 29 8 44 11 15 4 29 14 33 22 8 22 2 25 -29 13 -40 -15 -56 -12 -56
9 0 17 -18 31 -39 31 -4 0 -15 -8 -24 -18z"/>
<path d="M2610 2230 c0 -5 5 -10 11 -10 5 0 7 5 4 10 -3 6 -8 10 -11 10 -2 0
-4 -4 -4 -10z"/>
<path d="M2791 2194 c-1 -6 -11 -16 -23 -23 -23 -11 -23 -11 2 -5 31 8 33 10
27 26 -3 7 -6 8 -6 2z"/>
<path d="M185 2161 c-4 -13 -5 -24 -3 -25 17 -11 138 -52 142 -48 17 17 -7 38
-64 56 -43 14 -56 20 -61 29 -4 5 -10 0 -14 -12z"/>
<path d="M2715 2075 c-51 -50 -17 -135 54 -135 47 0 81 33 81 79 0 42 -38 81
-80 81 -19 0 -40 -9 -55 -25z m106 -15 c24 -14 25 -52 0 -67 -31 -19 -90 -27
-106 -13 -34 28 -11 66 48 80 17 4 33 8 35 9 2 1 12 -4 23 -9z"/>
<path d="M162 2040 c-12 -12 -22 -22 -22 -23 0 -2 16 -1 35 1 44 5 79 -3 99
-24 15 -14 16 -14 16 5 0 26 -46 61 -79 61 -15 0 -37 -9 -49 -20z"/>
<path d="M130 1974 c0 -12 9 -33 21 -48 16 -20 29 -26 60 -26 38 0 79 26 79
51 0 6 -7 3 -16 -5 -8 -9 -24 -16 -35 -16 -31 0 -86 26 -98 47 -10 17 -10 17
-11 -3z"/>
<path d="M2830 1889 c-25 -6 -59 -8 -77 -6 l-32 3 6 -51 c7 -70 9 -75 35 -74
l23 0 -22 11 c-16 8 -23 20 -23 39 0 30 16 37 98 41 37 2 42 5 42 25 0 13 -1
23 -2 22 -2 -1 -23 -5 -48 -10z"/>
<path d="M237 1842 c10 -10 22 -15 27 -11 12 10 8 14 -22 24 -23 7 -24 7 -5
-13z"/>
<path d="M250 1780 c0 -6 -29 -9 -72 -8 -60 3 -73 0 -76 -13 -2 -13 8 -16 60
-18 35 -1 71 -4 81 -7 14 -4 17 1 17 25 0 17 -2 31 -5 31 -3 0 -5 -5 -5 -10z"/>
<path d="M2780 1717 c-54 -28 -61 -99 -13 -137 33 -26 64 -25 97 1 34 27 37
58 4 35 -42 -30 -128 -10 -128 29 0 27 46 48 87 40 21 -4 44 -11 51 -17 19
-16 15 6 -5 30 -23 28 -62 35 -93 19z"/>
<path d="M228 1675 c16 -12 22 -25 20 -43 -3 -26 -6 -27 -70 -30 -59 -2 -68
-6 -68 -21 0 -17 8 -19 75 -18 l76 2 -3 60 c-3 56 -5 60 -28 63 l-25 3 23 -16z"/>
<path d="M2770 1522 c-20 -6 -50 -33 -50 -44 0 -5 9 -4 21 3 28 14 85 3 110
-22 17 -17 19 -17 19 -1 -1 38 -60 77 -100 64z"/>
<path d="M247 1513 c-3 -5 1 -14 9 -21 12 -10 14 -10 14 2 0 17 -16 30 -23 19z"/>
<path d="M121 1458 c1 -22 3 -26 6 -13 3 11 10 26 15 33 8 9 6 12 -6 12 -12 0
-16 -9 -15 -32z"/>
<path d="M186 1461 c-18 -7 -18 -8 -2 -14 25 -10 10 -27 -25 -27 -22 0 -29 -5
-29 -20 0 -23 1 -23 90 -7 l65 12 -6 35 c-4 19 -7 28 -8 19 -1 -17 -21 -29
-48 -29 -10 0 -14 6 -10 20 6 21 3 23 -27 11z"/>
<path d="M2713 1426 c2 -34 6 -41 30 -47 24 -6 27 -5 27 17 0 19 -5 24 -24 24
-17 0 -26 7 -29 23 -3 12 -4 4 -4 -17z"/>
<path d="M2844 1394 c-23 -24 -21 -34 4 -34 9 0 12 3 9 6 -3 4 -2 15 4 26 15
27 8 28 -17 2z"/>
<path d="M150 1310 c0 -14 15 -19 29 -11 9 6 7 10 -8 14 -12 3 -21 1 -21 -3z"/>
<path d="M250 1291 c24 -7 23 -7 -21 -41 -29 -23 -43 -41 -41 -52 2 -10 6 -18
9 -18 2 0 32 23 65 52 64 56 62 67 -7 66 -28 0 -29 0 -5 -7z"/>
<path d="M2673 1282 c-3 -9 -7 -19 -9 -22 -1 -3 9 -6 23 -6 14 -1 39 -15 56
-30 19 -18 24 -20 13 -6 -24 27 -21 30 32 34 23 2 42 6 42 10 0 3 2 13 6 21 4
12 -4 13 -51 4 -40 -6 -64 -6 -81 2 -21 9 -26 8 -31 -7z"/>
<path d="M2777 1179 c7 -7 15 -10 18 -7 3 3 -2 9 -12 12 -14 6 -15 5 -6 -5z"/>
<path d="M476 832 c10 -22 10 -62 -1 -86 -7 -17 -5 -18 16 -11 30 9 58 9 87 0
24 -8 24 -7 9 21 -13 25 -13 33 -1 54 20 37 17 40 -18 25 -28 -11 -38 -11 -66
1 -32 13 -33 13 -26 -4z"/>
<path d="M2390 843 c1 -5 7 -19 14 -33 12 -21 12 -29 0 -52 -20 -38 -18 -41
17 -22 26 13 36 13 60 3 37 -15 43 -9 28 25 -9 20 -9 32 -1 51 16 35 16 36
-20 21 -26 -11 -37 -11 -65 0 -18 8 -33 11 -33 7z"/>
<path d="M805 570 c-3 -6 1 -7 9 -4 18 7 21 14 7 14 -6 0 -13 -4 -16 -10z"/>
<path d="M886 565 c-21 -7 -43 -18 -49 -24 -6 -6 12 -2 39 8 27 10 56 21 64
24 13 5 13 5 0 6 -8 0 -32 -6 -54 -14z"/>
<path d="M2150 576 c0 -2 7 -7 16 -10 8 -3 12 -2 9 4 -6 10 -25 14 -25 6z"/>
<path d="M2099 555 c18 -8 36 -15 40 -15 13 1 -45 29 -59 29 -8 0 0 -6 19 -14z"/>
<path d="M903 535 c-45 -19 -41 -28 5 -11 20 8 44 17 52 19 10 4 9 6 -5 6 -11
0 -35 -6 -52 -14z"/>
<path d="M2030 543 c8 -4 34 -14 58 -24 23 -10 42 -16 42 -14 0 9 -80 45 -97
44 -14 0 -15 -2 -3 -6z"/>
<path d="M987 529 c-38 -9 -97 -36 -97 -44 0 -2 19 3 43 11 23 8 65 21 92 29
55 15 23 18 -38 4z"/>
<path d="M1970 521 c36 -10 78 -24 94 -30 49 -20 39 -5 -11 17 -26 11 -70 23
-98 26 -50 6 -50 6 15 -13z"/>
<path d="M1093 2508 c9 -7 46 -82 82 -166 82 -194 81 -193 91 -167 30 80 147
322 161 333 14 10 9 12 -33 12 -38 -1 -45 -3 -31 -11 9 -5 17 -15 17 -22 0
-16 -83 -207 -90 -207 -6 0 -90 201 -90 217 0 6 6 14 13 16 6 3 -21 6 -62 6
-62 1 -72 -1 -58 -11z"/>
<path d="M1504 2504 c13 -13 16 -42 16 -157 0 -78 -4 -147 -8 -153 -4 -7 -16
-14 -27 -17 -11 -2 23 -5 75 -5 52 0 84 3 70 7 l-25 7 -3 154 c-2 137 -1 156
15 167 14 11 5 13 -56 13 -66 0 -71 -1 -57 -16z"/>
<path d="M1680 2474 l0 -47 23 34 c18 27 30 35 60 37 l37 3 0 -156 c0 -152 -1
-156 -22 -165 -16 -6 4 -9 67 -8 50 0 82 2 72 5 -29 8 -37 47 -37 189 l0 135
43 -3 c37 -3 44 -7 59 -38 l18 -35 0 48 0 47 -160 0 -160 0 0 -46z"/>
<path d="M1268 881 c24 -24 42 -31 70 -31 60 0 58 13 -5 31 -32 9 -67 20 -78
24 -14 5 -10 -3 13 -24z"/>
<path d="M1035 795 l-30 -13 27 -11 c30 -11 62 -5 52 11 -4 6 0 14 7 19 23 14
-21 10 -56 -6z"/>
<path d="M1145 721 c-22 -5 -5 -9 63 -15 102 -8 136 -2 50 9 -29 3 -60 8 -68
9 -8 2 -28 0 -45 -3z"/>
<path d="M1530 720 l-95 -6 135 -2 c90 -1 130 2 120 8 -8 5 -26 9 -40 8 -14
-1 -68 -5 -120 -8z"/>
<path d="M1473 683 c15 -2 39 -2 55 0 15 2 2 4 -28 4 -30 0 -43 -2 -27 -4z"/>
<path d="M1138 633 c6 -2 18 -2 25 0 6 3 1 5 -13 5 -14 0 -19 -2 -12 -5z"/>
<path d="M1820 466 c0 -9 7 -16 16 -16 9 0 14 5 12 12 -6 18 -28 21 -28 4z"/>
<path d="M1410 450 c-6 -11 -8 -20 -6 -20 3 0 10 9 16 20 6 11 8 20 6 20 -3 0
-10 -9 -16 -20z"/>
<path d="M1479 452 c16 -29 8 -50 -21 -62 -16 -6 -18 -9 -6 -9 40 -2 63 55 31
80 -15 13 -15 12 -4 -9z"/>
<path d="M1665 409 c-7 -42 -31 -62 -46 -38 -6 9 -9 10 -9 2 0 -15 7 -19 50
-27 19 -3 30 -3 23 0 -8 4 -10 21 -6 55 7 59 -2 66 -12 8z"/>
<path d="M1266 415 c4 -16 10 -40 15 -51 4 -12 5 -25 2 -28 -4 -3 -1 -6 5 -6
15 0 15 3 0 54 -14 49 -33 75 -22 31z"/>
<path d="M1442 420 c0 -14 2 -19 5 -12 2 6 2 18 0 25 -3 6 -5 1 -5 -13z"/>
<path d="M1622 420 c0 -14 2 -19 5 -12 2 6 2 18 0 25 -3 6 -5 1 -5 -13z"/>
<path d="M1734 385 c-5 -30 -7 -55 -4 -55 4 0 11 25 17 55 5 30 7 55 3 55 -3
0 -10 -25 -16 -55z"/>
<path d="M1096 422 c-3 -6 2 -9 12 -8 12 1 17 -6 16 -22 0 -14 3 -19 9 -13 13
13 4 45 -15 49 -9 2 -19 -1 -22 -6z"/>
<path d="M1181 413 c-3 -32 24 -103 39 -103 9 0 11 3 5 8 -6 4 -18 30 -27 57
-9 28 -17 44 -17 38z"/>
<path d="M1826 381 c-3 -22 -9 -47 -13 -57 -4 -11 -3 -15 4 -11 6 4 14 23 17
43 4 19 10 42 13 50 3 8 1 14 -5 14 -5 0 -12 -18 -16 -39z"/>
<path d="M1056 394 c-15 -40 8 -104 37 -104 8 0 9 2 1 8 -21 14 -36 55 -30 83
6 31 2 39 -8 13z"/>
<path d="M942 389 c2 -6 8 -10 13 -10 5 0 11 4 13 10 2 6 -4 11 -13 11 -9 0
-15 -5 -13 -11z"/>
<path d="M1885 380 c-3 -6 1 -7 9 -4 18 7 21 14 7 14 -6 0 -13 -4 -16 -10z"/>
<path d="M1410 368 c0 -5 42 -7 93 -6 94 1 82 5 -31 10 -34 2 -62 0 -62 -4z"/>
<path d="M1960 348 c0 -26 -6 -41 -20 -51 -19 -13 -19 -15 -4 -21 9 -4 19 -4
22 -1 3 3 0 5 -6 5 -7 0 -3 9 8 20 22 22 25 46 10 70 -7 11 -10 6 -10 -22z"/>
<path d="M1010 351 c0 -5 6 -27 14 -49 8 -22 13 -43 10 -46 -2 -3 1 -3 6 2 7
5 5 24 -6 55 -15 44 -24 58 -24 38z"/>
<path d="M1870 346 c0 -9 7 -12 21 -9 17 5 20 2 17 -13 -2 -10 -11 -18 -21
-18 -9 1 -14 -2 -11 -7 9 -15 33 -10 43 10 11 20 3 32 -31 44 -12 4 -18 1 -18
-7z"/>
<path d="M2012 288 c-12 -39 -20 -73 -17 -76 2 -3 7 1 9 9 2 8 13 42 25 77 11
34 16 62 12 62 -4 0 -18 -32 -29 -72z"/>
<path d="M1138 340 c27 -11 24 -36 -3 -33 -11 1 -14 -2 -8 -8 16 -16 44 1 41
25 -2 14 -11 22 -28 23 l-25 3 23 -10z"/>
<path d="M935 308 c8 -43 24 -78 34 -78 9 0 5 11 -28 80 l-11 25 5 -27z"/>
<path d="M833 295 c-8 -22 17 -106 34 -112 11 -4 11 -9 -4 -25 -12 -14 -13
-17 -2 -13 8 3 20 14 27 25 10 17 10 20 -3 20 -16 0 -32 32 -42 83 -5 27 -4
28 23 25 23 -2 31 -10 41 -38 8 -22 12 -28 12 -15 2 49 -70 91 -86 50z"/>
<path d="M2209 250 c-9 -27 -12 -50 -7 -50 4 0 8 1 8 3 0 1 7 23 15 50 8 26
11 47 7 47 -5 0 -15 -22 -23 -50z"/>
<path d="M774 257 c13 -53 26 -77 41 -77 15 0 15 2 2 15 -9 8 -18 28 -22 45
-4 16 -11 33 -17 36 -7 5 -9 -2 -4 -19z"/>
<path d="M2580 255 c0 -8 7 -15 15 -15 8 0 15 7 15 15 0 8 -7 15 -15 15 -8 0
-15 -7 -15 -15z"/>
<path d="M2360 245 c0 -8 2 -15 4 -15 2 0 6 7 10 15 3 8 1 15 -4 15 -6 0 -10
-7 -10 -15z"/>
<path d="M647 243 c-9 -3 -15 -8 -12 -13 3 -5 11 -7 18 -4 16 6 43 -23 50 -51
4 -18 5 -18 6 2 1 28 -39 71 -62 66z"/>
<path d="M725 236 c11 -8 18 -26 18 -47 0 -30 1 -31 10 -11 11 23 -13 72 -35
72 -7 0 -3 -6 7 -14z"/>
<path d="M2143 231 c1 -14 9 -26 17 -28 10 -3 11 -2 4 4 -7 4 -14 17 -17 28
-5 16 -5 15 -4 -4z"/>
<path d="M2249 238 c14 -18 2 -52 -21 -61 -8 -3 -6 -6 5 -6 9 -1 23 10 29 24
10 22 9 28 -7 43 -17 15 -18 15 -6 0z"/>
<path d="M2402 244 c3 -3 0 -27 -7 -55 -7 -27 -10 -49 -5 -49 7 0 17 31 27 88
2 13 -1 22 -8 22 -7 0 -10 -3 -7 -6z"/>
<path d="M2306 221 c-10 -11 -16 -26 -13 -33 4 -10 6 -10 6 1 1 8 8 23 18 33
9 10 14 18 11 18 -3 0 -13 -9 -22 -19z"/>
<path d="M2351 204 c0 -11 3 -14 6 -6 3 7 2 16 -1 19 -3 4 -6 -2 -5 -13z"/>
<path d="M2513 160 c0 -36 2 -50 4 -32 2 17 2 47 0 65 -2 17 -4 3 -4 -33z"/>
<path d="M443 199 c21 -12 22 -42 1 -63 -8 -9 -12 -16 -7 -16 16 0 33 24 33
45 0 23 -17 45 -34 45 -6 0 -3 -5 7 -11z"/>
<path d="M2570 191 c-13 -26 -13 -91 1 -91 5 0 8 3 6 8 -3 4 -2 28 3 55 8 52
6 57 -10 28z"/>
<path d="M2438 188 c17 -17 15 -48 -5 -71 -14 -16 -15 -19 -3 -15 25 8 43 54
30 78 -6 11 -16 20 -22 20 -9 0 -9 -3 0 -12z"/>
<path d="M571 185 c1 -19 18 -51 18 -35 0 8 -4 22 -9 30 -5 8 -9 11 -9 5z"/>
<path d="M2120 180 c0 -12 8 -12 35 0 18 8 17 9 -7 9 -16 1 -28 -3 -28 -9z"/>
<path d="M413 162 c1 -14 5 -18 11 -12 7 7 6 14 -1 21 -9 9 -12 7 -10 -9z"/>
<path d="M617 160 c21 -24 19 -24 27 -4 3 8 2 12 -3 9 -5 -3 -12 -1 -16 5 -3
5 -10 10 -15 10 -6 0 -2 -9 7 -20z"/>
<path d="M2341 164 c0 -11 3 -14 6 -6 3 7 2 16 -1 19 -3 4 -6 -2 -5 -13z"/>
<path d="M810 145 c0 -8 4 -15 10 -15 5 0 7 7 4 15 -4 8 -8 15 -10 15 -2 0 -4
-7 -4 -15z"/>
<path d="M2290 153 c0 -16 49 -53 69 -53 9 1 2 7 -15 14 -18 8 -37 22 -43 33
-6 10 -11 13 -11 6z"/>
<path d="M2610 114 c-17 -9 -20 -14 -9 -14 9 0 22 7 29 15 15 18 13 18 -20 -1z"/>
<path d="M448 103 c23 -2 59 -2 80 0 20 2 1 4 -43 4 -44 0 -61 -2 -37 -4z"/>
</g>
</svg>
